# xmcd
#
# Track frame offsets: 
#        150
#        16765
#        37046
#        49173
#        67790
#        89136
#        107737
#        126117
#        136617
#        152555
#        174316
#        196200
#
# Disc length: 2984 seconds
#
# Revision: 1
# Processed by: cddbd v1.5.2PL0 Copyright (c) Steve Scherf et al.
# Submitted via: ExactAudioCopy v0.95b4
#
DISCID=940ba60c
DTITLE=Michel Jonasz - Michel Jonasz
DYEAR=2005
DGENRE=Blues
TTITLE0=Le premier reproche
TTITLE1=Le mal de toi
TTITLE2=Y'a toujours quelqu'un qui pleure
TTITLE3=Le dîner s'achève
TTITLE4=Pierre ponce
TTITLE5=La femme du parfumeur
TTITLE6=Barcelone
TTITLE7=Le cha-cha-cha
TTITLE8=J'ai swingué toute la nuit
TTITLE9=Le tango nu
TTITLE10=Les artistes
TTITLE11=Celui qui t'aimait c'était moi
EXTD=
EXTT0=
EXTT1=
EXTT2=
EXTT3=
EXTT4=
EXTT5=
EXTT6=
EXTT7=
EXTT8=
EXTT9=
EXTT10=
EXTT11=
PLAYORDER=
